<svg width="32" height="32" viewBox="0 0 32 32" fill="none" xmlns="http://www.w3.org/2000/svg">
<path d="M29.441 21.5C28.417 24.6 26.141 26.783 24 28V29.5C24 29.6326 23.9473 29.7598 23.8536 29.8536C23.7598 29.9473 23.6326 30 23.5 30H8.5C8.36739 30 8.24021 29.9473 8.14645 29.8536C8.05268 29.7598 8 29.6326 8 29.5V28C5.859 26.783 3.583 24.6 2.559 21.5H13.5V23.5H12.75C12.5511 23.5 12.3603 23.579 12.2197 23.7197C12.079 23.8603 12 24.0511 12 24.25C12 24.4489 12.079 24.6397 12.2197 24.7803C12.3603 24.921 12.5511 25 12.75 25H14.25C14.4489 25 14.6397 24.921 14.7803 24.7803C14.921 24.6397 15 24.4489 15 24.25V20.75C15 20.5511 14.921 20.3603 14.7803 20.2197C14.6397 20.079 14.4489 20 14.25 20H2.18C2.09109 19.5113 2.03463 19.0172 2.011 18.521C2.00927 18.4533 2.02109 18.3859 2.04578 18.3228C2.07047 18.2598 2.10753 18.2023 2.15477 18.1537C2.202 18.1052 2.25848 18.0666 2.32086 18.0402C2.38324 18.0138 2.45026 18.0001 2.518 18H29.483C29.766 18 30.002 18.238 29.989 18.521C29.9654 19.0172 29.9089 19.5113 29.82 20H17.75C17.5511 20 17.3603 20.079 17.2197 20.2197C17.079 20.3603 17 20.5511 17 20.75V24.25C17 24.664 17.336 25 17.75 25H19.25C19.4489 25 19.6397 24.921 19.7803 24.7803C19.921 24.6397 20 24.4489 20 24.25C20 24.0511 19.921 23.8603 19.7803 23.7197C19.6397 23.579 19.4489 23.5 19.25 23.5H18.5V21.5H29.441V21.5ZM13.5 15.001C13.5 15.494 13.631 16.012 13.805 16.5H12.231C12.0858 16.0126 12.0081 15.5075 12 14.999C12.001 13.751 13.072 12.284 13.409 11.048L14.921 11.194C14.631 12.553 13.501 14.197 13.5 15.001V15.001ZM10.5 15.001C10.5 15.494 10.631 16.012 10.805 16.5H9.231C9.08583 16.0126 9.00811 15.5075 9 14.999C9.001 13.616 10.258 12.079 10.464 10.763L11.955 10.907C11.753 12.421 10.501 14.145 10.5 15.001V15.001ZM7.5 15.001C7.5 15.494 7.631 16.012 7.805 16.5H6.231C6.08583 16.0126 6.00811 15.5075 6 14.999C6.001 13.59 7.5 11.646 7.5 10.5L7.498 10.477L8.987 10.621C8.921 12.181 7.501 14.105 7.5 15.001V15.001ZM29.03 9.057L14.386 7.907C14.058 7.124 13.67 6.418 13.544 5.853L29 5.991C29.2628 5.991 29.5149 5.88659 29.7007 5.70074C29.8866 5.51489 29.991 5.26283 29.991 5C29.991 4.73717 29.8866 4.48511 29.7007 4.29926C29.5149 4.11341 29.2628 4.009 29 4.009L13.85 4.144C14.147 3.652 14.53 3.448 14.567 3.43C14.7452 3.34542 14.883 3.19402 14.9503 3.0086C15.0177 2.82318 15.0093 2.61868 14.927 2.43941C14.8447 2.26013 14.695 2.12052 14.5104 2.05081C14.3259 1.9811 14.1213 1.98692 13.941 2.067C13.878 2.096 12.704 2.667 12.217 4.159L10.831 4.171C11.13 3.657 11.529 3.448 11.566 3.43C11.7442 3.34542 11.882 3.19402 11.9493 3.0086C12.0167 2.82318 12.0083 2.61868 11.926 2.43941C11.8437 2.26013 11.694 2.12052 11.5094 2.05081C11.3249 1.9811 11.1203 1.98692 10.94 2.067C10.878 2.095 9.69 2.674 9.21 4.186L7.816 4.198C8.117 3.664 8.529 3.449 8.567 3.43C8.74788 3.34699 8.88837 3.19552 8.95757 3.00892C9.02677 2.82232 9.01901 2.61588 8.936 2.435C8.85299 2.25412 8.70152 2.11363 8.51492 2.04443C8.32832 1.97523 8.12188 1.98299 7.941 2.066C7.877 2.095 6.677 2.68 6.202 4.212L2.75 4.243C2.55596 4.25298 2.37316 4.33708 2.23935 4.47796C2.10553 4.61883 2.03092 4.8057 2.03092 5C2.03092 5.1943 2.10553 5.38117 2.23935 5.52204C2.37316 5.66292 2.55596 5.74702 2.75 5.757L6.029 5.786C6.08 6.293 6.247 6.785 6.466 7.285L2.859 7.002C2.66532 6.99593 2.47667 7.06427 2.33181 7.19298C2.18695 7.32168 2.09688 7.50098 2.08011 7.69403C2.06334 7.88708 2.12114 8.07922 2.24164 8.23097C2.36213 8.38273 2.53617 8.48258 2.728 8.51L28.858 11.031C28.9893 11.0455 29.1221 11.0336 29.2487 10.996C29.3753 10.9584 29.4931 10.8959 29.5952 10.8122C29.6973 10.7284 29.7816 10.6251 29.8432 10.5083C29.9048 10.3915 29.9424 10.2635 29.9539 10.132C29.9654 10.0004 29.9504 9.86792 29.9099 9.74223C29.8695 9.61653 29.8043 9.50019 29.7182 9.40004C29.6321 9.2999 29.5269 9.21796 29.4087 9.15905C29.2905 9.10014 29.1618 9.06544 29.03 9.057ZM12.687 7.774L11.267 7.663C10.768 6.529 10.619 6.2 10.541 5.827L12.034 5.84C12.112 6.491 12.384 7.119 12.687 7.774V7.774ZM7.538 5.799L9.032 5.812C9.096 6.392 9.314 6.953 9.577 7.53L8.169 7.419C7.898 6.818 7.628 6.261 7.538 5.799Z" fill="#1ABC9C"/>
</svg>
